<svg width="50" height="32" viewBox="0 0 50 32" fill="none" xmlns="http://www.w3.org/2000/svg">
<rect x="0.253924" y="0.253924" width="48.6947" height="31.4738" rx="1.77747" fill="#1F72CD"/>
<rect x="0.253924" y="0.253924" width="48.6947" height="31.4738" rx="1.77747" stroke="#B2B2B2" style="mix-blend-mode:multiply" stroke-width="0.507847"/>
<path fill-rule="evenodd" clip-rule="evenodd" d="M12.91 12.1665L9.16821 20.447H13.6477L14.203 19.1268H15.4724L16.0277 20.447H20.9584V19.4394L21.3977 20.447H23.9482L24.3876 19.4181V20.447H34.642L35.8889 19.1611L37.0565 20.447L42.3233 20.4577L38.5697 16.3299L42.3233 12.1665H37.1381L35.9244 13.4287L34.7936 12.1665H23.6381L22.6802 14.3038L21.6998 12.1665H17.2297V13.1399L16.7324 12.1665H12.91ZM13.7768 13.3423H15.9603L18.4423 18.9574V13.3423H20.8342L22.7512 17.3683L24.518 13.3423H26.898V19.2842H25.4498L25.438 14.6282L23.3267 19.2842H22.0312L19.9081 14.6282V19.2842H16.9289L16.3641 17.9521H13.3127L12.749 19.283H11.1528L13.7768 13.3423ZM34.1115 13.3423H28.2229V19.2807H34.0203L35.8889 17.3126L37.6899 19.2807H39.5726L36.8361 16.3287L39.5726 13.3423H37.7716L35.9125 15.2878L34.1115 13.3423ZM14.839 14.3477L13.8337 16.7207H15.8432L14.839 14.3477ZM29.677 15.6573V14.5726V14.5715H33.3513L34.9545 16.3062L33.2802 18.0504H29.677V16.8662H32.8895V15.6573H29.677Z" fill="white"/>
</svg>
