<svg width="196" height="39" viewBox="0 0 196 39" fill="none" xmlns="http://www.w3.org/2000/svg">
<path d="M24.794 0.66687V14.8031H11.9223V0.66687H0V37.8679H11.9223V23.5135H24.794V37.8679H36.7162V0.66687H24.794Z" fill="#FF6600"/>
<path d="M59.9034 38.5386C45.9732 38.5386 41.5735 31.1654 41.5735 23.6226V0.66687H53.4958V23.6226C53.4958 27.3112 55.225 29.8241 59.8468 29.8241C64.303 29.8241 66.1978 27.3112 66.1978 23.6226V0.66687H77.4494V23.6226C77.4535 31.5573 72.8842 38.5386 59.9034 38.5386Z" fill="#FF6600"/>
<path d="M105.41 9.38132V37.8679H93.4873V9.38132H81.7307V0.66687H117.166V9.38132H105.41Z" fill="#FF6600"/>
<path d="M144.961 15.4695C144.347 11.8415 142.787 8.76697 138.497 8.76697C133.091 8.76697 130.473 13.2919 130.473 19.2671C130.473 25.2424 133.313 29.7713 138.832 29.7713C143.511 29.7713 145.462 26.9796 146.019 22.677L155.712 25.2465C155.433 32.7327 149.805 38.5383 138.275 38.5383C125.686 38.5383 118.05 30.8298 118.05 19.2671C118.05 8.60133 124.68 0 138.165 0C147.191 0 154.1 4.80365 154.491 13.5141L144.961 15.4695Z" fill="#FF6600"/>
<path d="M184.078 37.8679V23.5135H171.206V37.8679H159.284V0.66687H171.206V14.8031H184.078V0.66687H196V37.8679H184.078Z" fill="#FF6600"/>
</svg>
