<svg width="16" height="18" viewBox="0 0 16 18" fill="none" xmlns="http://www.w3.org/2000/svg">
<g clip-path="url(#clip0_383_17022)">
<path d="M9.40541 10.6734C9.40541 10.6734 9.52926 10.5496 9.77696 10.3019C10.0247 10.0542 10.1485 9.58023 10.1485 8.88007C10.1485 8.17992 9.90081 7.58214 9.40541 7.08674C8.91002 6.59135 8.31224 6.34365 7.61208 6.34365C6.91192 6.34365 6.31415 6.59135 5.81875 7.08674C5.32336 7.58214 5.07566 8.17992 5.07566 8.88007C5.07566 9.58023 5.32336 10.178 5.81875 10.6734C6.31415 11.1688 6.91192 11.4165 7.61208 11.4165C8.31224 11.4165 8.91002 11.1688 9.40541 10.6734ZM10.3764 6.11577C10.3764 6.11577 10.5663 6.30567 10.9461 6.68547C11.3259 7.06528 11.5158 7.79681 11.5158 8.88007C11.5158 9.96334 11.136 10.8848 10.3764 11.6444C9.61678 12.404 8.69535 12.7838 7.61208 12.7838C6.52882 12.7838 5.60738 12.404 4.84778 11.6444C4.08817 10.8848 3.70837 9.96334 3.70837 8.88007C3.70837 7.79681 4.08817 6.87537 4.84778 6.11577C5.60738 5.35616 6.52882 4.97636 7.61208 4.97636C8.69535 4.97636 9.61678 5.35616 10.3764 6.11577ZM12.3183 4.17382C12.3183 4.17382 12.3629 4.2184 12.4521 4.30757C12.5413 4.39674 12.5859 4.56683 12.5859 4.81783C12.5859 5.06883 12.4967 5.2835 12.3183 5.46184C12.14 5.64019 11.9253 5.72936 11.6743 5.72936C11.4233 5.72936 11.2087 5.64019 11.0303 5.46184C10.852 5.2835 10.7628 5.06883 10.7628 4.81783C10.7628 4.56683 10.852 4.35216 11.0303 4.17382C11.2087 3.99547 11.4233 3.9063 11.6743 3.9063C11.9253 3.9063 12.14 3.99547 12.3183 4.17382ZM8.37004 2.63314C8.37004 2.63314 8.25527 2.63396 8.02574 2.63561C7.79621 2.63726 7.65832 2.63809 7.61208 2.63809C7.56585 2.63809 7.31319 2.63644 6.85413 2.63314C6.39506 2.62983 6.04663 2.62983 5.80884 2.63314C5.57105 2.63644 5.25235 2.64635 4.85273 2.66286C4.45311 2.67937 4.11294 2.7124 3.83222 2.76194C3.55149 2.81148 3.31535 2.87258 3.1238 2.94524C2.79354 3.07734 2.5029 3.26889 2.2519 3.51989C2.0009 3.7709 1.80935 4.06153 1.67724 4.39179C1.60459 4.58334 1.54349 4.81948 1.49395 5.10021C1.44441 5.38093 1.41138 5.7211 1.39487 6.12072C1.37836 6.52034 1.36845 6.83904 1.36515 7.07683C1.36184 7.31462 1.36184 7.66305 1.36515 8.12212C1.36845 8.58119 1.3701 8.83384 1.3701 8.88007C1.3701 8.92631 1.36845 9.17896 1.36515 9.63803C1.36184 10.0971 1.36184 10.4455 1.36515 10.6833C1.36845 10.9211 1.37836 11.2398 1.39487 11.6394C1.41138 12.039 1.44441 12.3792 1.49395 12.6599C1.54349 12.9407 1.60459 13.1768 1.67724 13.3684C1.80935 13.6986 2.0009 13.9893 2.2519 14.2403C2.5029 14.4913 2.79354 14.6828 3.1238 14.8149C3.31535 14.8876 3.55149 14.9487 3.83222 14.9982C4.11294 15.0477 4.45311 15.0808 4.85273 15.0973C5.25235 15.1138 5.57105 15.1237 5.80884 15.127C6.04663 15.1303 6.39506 15.1303 6.85413 15.127C7.31319 15.1237 7.56585 15.1221 7.61208 15.1221C7.65832 15.1221 7.91097 15.1237 8.37004 15.127C8.8291 15.1303 9.17753 15.1303 9.41532 15.127C9.65311 15.1237 9.97182 15.1138 10.3714 15.0973C10.7711 15.0808 11.1112 15.0477 11.392 14.9982C11.6727 14.9487 11.9088 14.8876 12.1004 14.8149C12.4306 14.6828 12.7213 14.4913 12.9723 14.2403C13.2233 13.9893 13.4148 13.6986 13.5469 13.3684C13.6196 13.1768 13.6807 12.9407 13.7302 12.6599C13.7798 12.3792 13.8128 12.039 13.8293 11.6394C13.8458 11.2398 13.8557 10.9211 13.859 10.6833C13.8623 10.4455 13.8623 10.0971 13.859 9.63803C13.8557 9.17896 13.8541 8.92631 13.8541 8.88007C13.8541 8.83384 13.8557 8.58119 13.859 8.12212C13.8623 7.66305 13.8623 7.31462 13.859 7.07683C13.8557 6.83904 13.8458 6.52034 13.8293 6.12072C13.8128 5.7211 13.7798 5.38093 13.7302 5.10021C13.6807 4.81948 13.6196 4.58334 13.5469 4.39179C13.4148 4.06153 13.2233 3.7709 12.9723 3.51989C12.7213 3.26889 12.4306 3.07734 12.1004 2.94524C11.9088 2.87258 11.6727 2.81148 11.392 2.76194C11.1112 2.7124 10.7711 2.67937 10.3714 2.66286C9.97182 2.64635 9.65311 2.63644 9.41532 2.63314C9.17753 2.62983 8.8291 2.62983 8.37004 2.63314ZM15.1718 5.73927C15.2048 6.32053 15.2214 7.36747 15.2214 8.88007C15.2214 10.3927 15.2048 11.4396 15.1718 12.0209C15.1058 13.3948 14.6962 14.4582 13.9432 15.2112C13.1902 15.9642 12.1268 16.3738 10.7529 16.4398C10.1716 16.4728 9.12469 16.4893 7.61208 16.4893C6.09948 16.4893 5.05254 16.4728 4.47128 16.4398C3.09738 16.3738 2.03393 15.9642 1.28093 15.2112C0.527927 14.4582 0.1184 13.3948 0.0523472 12.0209C0.0193208 11.4396 0.00280762 10.3927 0.00280762 8.88007C0.00280762 7.36747 0.0193208 6.32053 0.0523472 5.73927C0.1184 4.36537 0.527927 3.30192 1.28093 2.54892C2.03393 1.79592 3.09738 1.38639 4.47128 1.32034C5.05254 1.28731 6.09948 1.2708 7.61208 1.2708C9.12469 1.2708 10.1716 1.28731 10.7529 1.32034C12.1268 1.38639 13.1902 1.79592 13.9432 2.54892C14.6962 3.30192 15.1058 4.36537 15.1718 5.73927Z" fill="#FF6600"/>
</g>
<defs>
<clipPath id="clip0_383_17022">
<rect width="15.2249" height="17.755" fill="white" transform="matrix(1 0 0 -1 0 17.755)"/>
</clipPath>
</defs>
</svg>
