<svg width="16" height="18" viewBox="0 0 16 18" fill="none" xmlns="http://www.w3.org/2000/svg">
<g clip-path="url(#clip0_383_17019)">
<path d="M3.46055 6.19405V16.0128H0.190936V6.19405H3.46055ZM3.66861 3.16223C3.67522 3.64441 3.50843 4.04733 3.16826 4.37099C2.82809 4.69465 2.38058 4.85648 1.82574 4.85648H1.80593C1.26429 4.85648 0.828345 4.69465 0.498081 4.37099C0.167817 4.04733 0.00268555 3.64441 0.00268555 3.16223C0.00268555 2.67344 0.172771 2.26886 0.512943 1.94851C0.853115 1.62815 1.29732 1.46797 1.84556 1.46797C2.39379 1.46797 2.83305 1.62815 3.16331 1.94851C3.49357 2.26886 3.66201 2.67344 3.66861 3.16223ZM15.2212 10.3851V16.0128H11.9615V10.7616C11.9615 10.068 11.8278 9.52476 11.5603 9.13174C11.2927 8.73873 10.875 8.54222 10.3069 8.54222C9.89078 8.54222 9.54235 8.65616 9.26163 8.88405C8.9809 9.11193 8.77119 9.3943 8.63248 9.73117C8.55982 9.92933 8.52349 10.1968 8.52349 10.5337V16.0128H5.26379C5.277 13.3773 5.2836 11.2405 5.2836 9.60237C5.2836 7.96426 5.2803 6.98668 5.27369 6.66963L5.26379 6.19405H8.52349V7.62079H8.50367C8.63578 7.40942 8.77119 7.22447 8.9099 7.06594C9.04861 6.90742 9.23521 6.73568 9.46969 6.55073C9.70418 6.36578 9.99151 6.22212 10.3317 6.11974C10.6719 6.01736 11.05 5.96617 11.4661 5.96617C12.5956 5.96617 13.5039 6.34101 14.1908 7.09071C14.8778 7.84041 15.2212 8.93854 15.2212 10.3851Z" fill="#FF6600"/>
</g>
<defs>
<clipPath id="clip0_383_17019">
<rect width="15.2249" height="17.755" fill="white" transform="matrix(1 0 0 -1 0 17.755)"/>
</clipPath>
</defs>
</svg>
