<svg width="50" height="32" viewBox="0 0 50 32" fill="none" xmlns="http://www.w3.org/2000/svg">
<rect width="49.2025" height="31.9816" rx="2.03139" fill="white"/>
<path d="M31.0801 6.31836C36.3137 6.31844 40.5564 10.6155 40.5566 15.916C40.5566 21.2168 36.3138 25.5146 31.0801 25.5146C28.7335 25.5146 26.5877 24.6486 24.9326 23.2178C23.2776 24.6483 21.1325 25.5146 18.7861 25.5146C13.5525 25.5146 9.30983 21.2176 9.30957 15.917C9.30957 10.6162 13.5523 6.31836 18.7861 6.31836C21.1322 6.31843 23.2777 7.18394 24.9326 8.61426C26.5877 7.18372 28.7337 6.31836 31.0801 6.31836Z" fill="#ED0006"/>
<path d="M31.0801 6.31836C36.3135 6.31862 40.5564 10.6156 40.5566 15.916C40.5566 21.2166 36.3137 25.5144 31.0801 25.5146C28.7336 25.5146 26.5877 24.6485 24.9326 23.2178C26.9691 21.4573 28.2627 18.8403 28.2627 15.916C28.2626 12.9917 26.9693 10.3746 24.9326 8.61426C26.5876 7.18382 28.7338 6.31836 31.0801 6.31836Z" fill="#F9A000"/>
<path d="M24.9329 8.61499C26.9695 10.3754 28.262 12.9924 28.262 15.9167C28.2619 18.8408 26.9692 21.4571 24.9329 23.2175C22.8965 21.4571 21.6038 18.8408 21.6038 15.9167C21.6038 12.9924 22.8963 10.3754 24.9329 8.61499Z" fill="#FF5E00"/>
</svg>
