<svg width="17" height="18" viewBox="0 0 17 18" fill="none" xmlns="http://www.w3.org/2000/svg">
<path d="M16.052 4.04467C15.6094 4.69199 15.0744 5.24353 14.4469 5.69929C14.4535 5.79177 14.4568 5.93048 14.4568 6.11543C14.4568 6.97411 14.3313 7.83115 14.0803 8.68653C13.8293 9.54191 13.4479 10.3626 12.936 11.1486C12.4241 11.9347 11.8147 12.6299 11.108 13.2343C10.4012 13.8386 9.54911 14.3208 8.55171 14.6808C7.55432 15.0408 6.48756 15.2208 5.35146 15.2208C3.56143 15.2208 1.92332 14.7419 0.437134 13.7841C0.668318 13.8106 0.925924 13.8238 1.20995 13.8238C2.69614 13.8238 4.02049 13.368 5.18302 12.4565C4.48947 12.4433 3.86857 12.2303 3.32034 11.8174C2.7721 11.4046 2.3956 10.8778 2.19083 10.2371C2.40881 10.2701 2.61027 10.2867 2.79522 10.2867C3.07924 10.2867 3.35997 10.2503 3.63739 10.1777C2.8976 10.0257 2.28496 9.6575 1.79947 9.07294C1.31398 8.48837 1.07124 7.80968 1.07124 7.03686V6.99723C1.5204 7.24823 2.00258 7.38364 2.51779 7.40345C2.08185 7.11282 1.73507 6.73302 1.47746 6.26404C1.21986 5.79507 1.09106 5.28646 1.09106 4.73823C1.09106 4.15696 1.23637 3.61863 1.527 3.12324C2.32624 4.10742 3.29887 4.8951 4.44488 5.48627C5.5909 6.07745 6.81783 6.40606 8.12567 6.47211C8.07283 6.22111 8.04641 5.97672 8.04641 5.73892C8.04641 4.85382 8.35851 4.09917 8.98271 3.47497C9.6069 2.85077 10.3616 2.53867 11.2467 2.53867C12.1714 2.53867 12.9508 2.87554 13.5849 3.54928C14.3049 3.41057 14.9819 3.15296 15.6161 2.77646C15.3717 3.53607 14.9027 4.12394 14.2091 4.54007C14.8234 4.47402 15.4377 4.30888 16.052 4.04467Z" fill="#FF6600"/>
</svg>
