<svg width="50" height="32" viewBox="0 0 50 32" fill="none" xmlns="http://www.w3.org/2000/svg">
<rect width="49.2025" height="31.9816" rx="2.03139" fill="white"/>
<path fill-rule="evenodd" clip-rule="evenodd" d="M15.349 22.8222H11.9397L9.3831 13.0686C9.26175 12.62 9.0041 12.2233 8.6251 12.0364C7.67926 11.5666 6.637 11.1927 5.5 11.0041V10.6286H10.9922C11.7502 10.6286 12.3187 11.1927 12.4134 11.8478L13.7399 18.8834L17.1476 10.6286H20.4622L15.349 22.8222ZM22.3573 22.8222H19.1375L21.7888 10.6286H25.0087L22.3573 22.8222ZM29.1742 14.0066C29.269 13.3499 29.8375 12.9744 30.5007 12.9744C31.543 12.8801 32.6783 13.0687 33.6258 13.5368L34.1943 10.9115C33.2468 10.536 32.2046 10.3474 31.2587 10.3474C28.1336 10.3474 25.8596 12.0364 25.8596 14.3805C25.8596 16.1638 27.4704 17.1001 28.6074 17.6642C29.8375 18.2267 30.3112 18.6022 30.2165 19.1646C30.2165 20.0083 29.269 20.3838 28.3231 20.3838C27.1861 20.3838 26.0491 20.1026 25.0085 19.6328L24.44 22.2598C25.577 22.7279 26.8071 22.9165 27.9441 22.9165C31.4482 23.0091 33.6258 21.3218 33.6258 18.7891C33.6258 15.5997 29.1742 15.4128 29.1742 14.0066ZM44.8945 22.8222L42.3379 10.6286H39.5918C39.0233 10.6286 38.4548 11.0041 38.2653 11.5666L33.5312 22.8222H36.8458L37.5073 21.0405H41.5799L41.9589 22.8222H44.8945ZM40.0655 13.9123L41.0114 18.5079H38.36L40.0655 13.9123Z" fill="#172B85"/>
</svg>
